<mxfile host="Electron" agent="Mozilla/5.0 (X11; Linux x86_64) AppleWebKit/537.36 (KHTML, like Gecko) draw.io/26.0.9 Chrome/128.0.6613.186 Electron/32.3.0 Safari/537.36" version="26.0.9">
  <diagram name="Page-1" id="Lv1juzON1N6mEkAhvw8k">
    <mxGraphModel dx="814" dy="503" grid="1" gridSize="10" guides="1" tooltips="1" connect="1" arrows="1" fold="1" page="1" pageScale="1" pageWidth="850" pageHeight="1100" math="0" shadow="0">
      <root>
        <mxCell id="0" />
        <mxCell id="1" parent="0" />
        <mxCell id="lhFpvezay6bXOuwAAuia-13" value="" style="group" parent="1" vertex="1" connectable="0">
          <mxGeometry x="380" y="160" width="160" height="100" as="geometry" />
        </mxCell>
        <mxCell id="lhFpvezay6bXOuwAAuia-40" style="edgeStyle=orthogonalEdgeStyle;rounded=0;orthogonalLoop=1;jettySize=auto;html=1;exitX=0;exitY=0.75;exitDx=0;exitDy=0;" parent="lhFpvezay6bXOuwAAuia-13" source="lhFpvezay6bXOuwAAuia-1" edge="1">
          <mxGeometry relative="1" as="geometry">
            <mxPoint x="380" y="20.33333333333337" as="targetPoint" />
          </mxGeometry>
        </mxCell>
        <mxCell id="A-LTYlnQM60m7RUozHwg-6" value="a" style="edgeLabel;html=1;align=center;verticalAlign=middle;resizable=0;points=[];fontSize=15;" vertex="1" connectable="0" parent="lhFpvezay6bXOuwAAuia-40">
          <mxGeometry x="0.4936" relative="1" as="geometry">
            <mxPoint as="offset" />
          </mxGeometry>
        </mxCell>
        <mxCell id="lhFpvezay6bXOuwAAuia-41" style="edgeStyle=orthogonalEdgeStyle;rounded=0;orthogonalLoop=1;jettySize=auto;html=1;exitX=0;exitY=0.25;exitDx=0;exitDy=0;" parent="lhFpvezay6bXOuwAAuia-13" source="lhFpvezay6bXOuwAAuia-1" edge="1">
          <mxGeometry relative="1" as="geometry">
            <mxPoint x="380" y="60.33333333333337" as="targetPoint" />
          </mxGeometry>
        </mxCell>
        <mxCell id="A-LTYlnQM60m7RUozHwg-7" value="b" style="edgeLabel;html=1;align=center;verticalAlign=middle;resizable=0;points=[];fontSize=15;" vertex="1" connectable="0" parent="lhFpvezay6bXOuwAAuia-41">
          <mxGeometry x="0.5064" relative="1" as="geometry">
            <mxPoint as="offset" />
          </mxGeometry>
        </mxCell>
        <mxCell id="lhFpvezay6bXOuwAAuia-1" value="DMux" style="triangle;whiteSpace=wrap;html=1;direction=west;" parent="lhFpvezay6bXOuwAAuia-13" vertex="1">
          <mxGeometry x="40" width="80" height="80" as="geometry" />
        </mxCell>
        <mxCell id="lhFpvezay6bXOuwAAuia-8" value="" style="endArrow=classic;html=1;rounded=0;entryX=1;entryY=0.5;entryDx=0;entryDy=0;" parent="lhFpvezay6bXOuwAAuia-13" target="lhFpvezay6bXOuwAAuia-1" edge="1">
          <mxGeometry width="50" height="50" relative="1" as="geometry">
            <mxPoint y="40" as="sourcePoint" />
            <mxPoint x="-10" as="targetPoint" />
          </mxGeometry>
        </mxCell>
        <mxCell id="lhFpvezay6bXOuwAAuia-9" value="" style="endArrow=none;html=1;rounded=0;entryX=1;entryY=0.5;entryDx=0;entryDy=0;startFill=0;" parent="lhFpvezay6bXOuwAAuia-13" edge="1">
          <mxGeometry width="50" height="50" relative="1" as="geometry">
            <mxPoint x="120" y="20" as="sourcePoint" />
            <mxPoint x="160" y="20" as="targetPoint" />
          </mxGeometry>
        </mxCell>
        <mxCell id="lhFpvezay6bXOuwAAuia-10" value="" style="endArrow=none;html=1;rounded=0;entryX=1;entryY=0.5;entryDx=0;entryDy=0;startFill=0;" parent="lhFpvezay6bXOuwAAuia-13" edge="1">
          <mxGeometry width="50" height="50" relative="1" as="geometry">
            <mxPoint x="120" y="60" as="sourcePoint" />
            <mxPoint x="160" y="60" as="targetPoint" />
          </mxGeometry>
        </mxCell>
        <mxCell id="lhFpvezay6bXOuwAAuia-11" value="" style="endArrow=classic;html=1;rounded=0;entryX=0.5;entryY=0;entryDx=0;entryDy=0;" parent="lhFpvezay6bXOuwAAuia-13" target="lhFpvezay6bXOuwAAuia-1" edge="1">
          <mxGeometry width="50" height="50" relative="1" as="geometry">
            <mxPoint x="80" y="100" as="sourcePoint" />
            <mxPoint x="100" y="130" as="targetPoint" />
          </mxGeometry>
        </mxCell>
        <mxCell id="lhFpvezay6bXOuwAAuia-12" value="sel" style="edgeLabel;html=1;align=center;verticalAlign=middle;resizable=0;points=[];" parent="lhFpvezay6bXOuwAAuia-11" vertex="1" connectable="0">
          <mxGeometry x="0.0274" relative="1" as="geometry">
            <mxPoint as="offset" />
          </mxGeometry>
        </mxCell>
        <mxCell id="lhFpvezay6bXOuwAAuia-14" value="DMux4Way" style="text;html=1;align=center;verticalAlign=middle;whiteSpace=wrap;rounded=0;fontSize=30;" parent="1" vertex="1">
          <mxGeometry x="365" y="10" width="60" height="30" as="geometry" />
        </mxCell>
        <mxCell id="lhFpvezay6bXOuwAAuia-15" value="" style="group" parent="1" vertex="1" connectable="0">
          <mxGeometry x="500" y="300" width="160" height="100" as="geometry" />
        </mxCell>
        <mxCell id="A-LTYlnQM60m7RUozHwg-4" style="edgeStyle=orthogonalEdgeStyle;rounded=0;orthogonalLoop=1;jettySize=auto;html=1;exitX=0;exitY=0.75;exitDx=0;exitDy=0;" edge="1" parent="lhFpvezay6bXOuwAAuia-15" source="lhFpvezay6bXOuwAAuia-16">
          <mxGeometry relative="1" as="geometry">
            <mxPoint x="259.9999999999998" y="20.33333333333337" as="targetPoint" />
          </mxGeometry>
        </mxCell>
        <mxCell id="A-LTYlnQM60m7RUozHwg-8" value="c" style="edgeLabel;html=1;align=center;verticalAlign=middle;resizable=0;points=[];fontSize=15;" vertex="1" connectable="0" parent="A-LTYlnQM60m7RUozHwg-4">
          <mxGeometry x="0.4764" relative="1" as="geometry">
            <mxPoint x="-23" y="-1" as="offset" />
          </mxGeometry>
        </mxCell>
        <mxCell id="A-LTYlnQM60m7RUozHwg-5" style="edgeStyle=orthogonalEdgeStyle;rounded=0;orthogonalLoop=1;jettySize=auto;html=1;exitX=0;exitY=0.25;exitDx=0;exitDy=0;" edge="1" parent="lhFpvezay6bXOuwAAuia-15" source="lhFpvezay6bXOuwAAuia-16">
          <mxGeometry relative="1" as="geometry">
            <mxPoint x="259.9999999999998" y="60.33333333333337" as="targetPoint" />
          </mxGeometry>
        </mxCell>
        <mxCell id="A-LTYlnQM60m7RUozHwg-9" value="d" style="edgeLabel;html=1;align=center;verticalAlign=middle;resizable=0;points=[];fontSize=15;" vertex="1" connectable="0" parent="A-LTYlnQM60m7RUozHwg-5">
          <mxGeometry x="0.512" relative="1" as="geometry">
            <mxPoint x="-23" y="-1" as="offset" />
          </mxGeometry>
        </mxCell>
        <mxCell id="lhFpvezay6bXOuwAAuia-16" value="DMux" style="triangle;whiteSpace=wrap;html=1;direction=west;" parent="lhFpvezay6bXOuwAAuia-15" vertex="1">
          <mxGeometry x="40" width="80" height="80" as="geometry" />
        </mxCell>
        <mxCell id="lhFpvezay6bXOuwAAuia-17" value="" style="endArrow=classic;html=1;rounded=0;entryX=1;entryY=0.5;entryDx=0;entryDy=0;" parent="lhFpvezay6bXOuwAAuia-15" target="lhFpvezay6bXOuwAAuia-16" edge="1">
          <mxGeometry width="50" height="50" relative="1" as="geometry">
            <mxPoint y="40" as="sourcePoint" />
            <mxPoint x="-10" as="targetPoint" />
          </mxGeometry>
        </mxCell>
        <mxCell id="lhFpvezay6bXOuwAAuia-18" value="" style="endArrow=none;html=1;rounded=0;entryX=1;entryY=0.5;entryDx=0;entryDy=0;startFill=0;" parent="lhFpvezay6bXOuwAAuia-15" edge="1">
          <mxGeometry width="50" height="50" relative="1" as="geometry">
            <mxPoint x="120" y="20" as="sourcePoint" />
            <mxPoint x="160" y="20" as="targetPoint" />
          </mxGeometry>
        </mxCell>
        <mxCell id="lhFpvezay6bXOuwAAuia-19" value="" style="endArrow=none;html=1;rounded=0;entryX=1;entryY=0.5;entryDx=0;entryDy=0;startFill=0;" parent="lhFpvezay6bXOuwAAuia-15" edge="1">
          <mxGeometry width="50" height="50" relative="1" as="geometry">
            <mxPoint x="120" y="60" as="sourcePoint" />
            <mxPoint x="160" y="60" as="targetPoint" />
          </mxGeometry>
        </mxCell>
        <mxCell id="lhFpvezay6bXOuwAAuia-20" value="" style="endArrow=classic;html=1;rounded=0;entryX=0.5;entryY=0;entryDx=0;entryDy=0;" parent="lhFpvezay6bXOuwAAuia-15" target="lhFpvezay6bXOuwAAuia-16" edge="1">
          <mxGeometry width="50" height="50" relative="1" as="geometry">
            <mxPoint x="80" y="100" as="sourcePoint" />
            <mxPoint x="100" y="130" as="targetPoint" />
          </mxGeometry>
        </mxCell>
        <mxCell id="lhFpvezay6bXOuwAAuia-21" value="sel" style="edgeLabel;html=1;align=center;verticalAlign=middle;resizable=0;points=[];" parent="lhFpvezay6bXOuwAAuia-20" vertex="1" connectable="0">
          <mxGeometry x="0.0274" relative="1" as="geometry">
            <mxPoint as="offset" />
          </mxGeometry>
        </mxCell>
        <mxCell id="lhFpvezay6bXOuwAAuia-22" value="" style="endArrow=none;html=1;rounded=0;startFill=0;" parent="1" edge="1">
          <mxGeometry width="50" height="50" relative="1" as="geometry">
            <mxPoint x="20" y="340" as="sourcePoint" />
            <mxPoint x="80" y="340" as="targetPoint" />
          </mxGeometry>
        </mxCell>
        <mxCell id="lhFpvezay6bXOuwAAuia-24" value="&lt;font style=&quot;font-size: 14px;&quot;&gt;in&lt;/font&gt;" style="edgeLabel;html=1;align=center;verticalAlign=middle;resizable=0;points=[];" parent="lhFpvezay6bXOuwAAuia-22" vertex="1" connectable="0">
          <mxGeometry x="-0.024" relative="1" as="geometry">
            <mxPoint as="offset" />
          </mxGeometry>
        </mxCell>
        <mxCell id="lhFpvezay6bXOuwAAuia-26" value="" style="endArrow=none;html=1;rounded=0;startFill=0;" parent="1" edge="1">
          <mxGeometry width="50" height="50" relative="1" as="geometry">
            <mxPoint x="20" y="430" as="sourcePoint" />
            <mxPoint x="80" y="430" as="targetPoint" />
          </mxGeometry>
        </mxCell>
        <mxCell id="lhFpvezay6bXOuwAAuia-27" value="&lt;font style=&quot;font-size: 14px;&quot;&gt;sel[0]&lt;/font&gt;" style="edgeLabel;html=1;align=center;verticalAlign=middle;resizable=0;points=[];" parent="lhFpvezay6bXOuwAAuia-26" vertex="1" connectable="0">
          <mxGeometry x="-0.024" relative="1" as="geometry">
            <mxPoint as="offset" />
          </mxGeometry>
        </mxCell>
        <mxCell id="lhFpvezay6bXOuwAAuia-28" value="" style="endArrow=none;html=1;rounded=0;startFill=0;" parent="1" edge="1">
          <mxGeometry width="50" height="50" relative="1" as="geometry">
            <mxPoint x="20" y="470" as="sourcePoint" />
            <mxPoint x="80" y="470" as="targetPoint" />
          </mxGeometry>
        </mxCell>
        <mxCell id="lhFpvezay6bXOuwAAuia-29" value="&lt;font style=&quot;font-size: 14px;&quot;&gt;sel[1]&lt;/font&gt;" style="edgeLabel;html=1;align=center;verticalAlign=middle;resizable=0;points=[];" parent="lhFpvezay6bXOuwAAuia-28" vertex="1" connectable="0">
          <mxGeometry x="-0.024" relative="1" as="geometry">
            <mxPoint as="offset" />
          </mxGeometry>
        </mxCell>
        <mxCell id="lhFpvezay6bXOuwAAuia-30" value="" style="endArrow=none;html=1;rounded=0;edgeStyle=orthogonalEdgeStyle;startFill=0;" parent="1" edge="1">
          <mxGeometry width="50" height="50" relative="1" as="geometry">
            <mxPoint x="240" y="320" as="sourcePoint" />
            <mxPoint x="380" y="200" as="targetPoint" />
            <Array as="points">
              <mxPoint x="340" y="200" />
            </Array>
          </mxGeometry>
        </mxCell>
        <mxCell id="lhFpvezay6bXOuwAAuia-33" value="" style="endArrow=none;html=1;rounded=0;edgeStyle=orthogonalEdgeStyle;startFill=0;" parent="1" source="lhFpvezay6bXOuwAAuia-37" edge="1">
          <mxGeometry width="50" height="50" relative="1" as="geometry">
            <mxPoint x="280" y="400" as="sourcePoint" />
            <mxPoint x="460" y="260" as="targetPoint" />
          </mxGeometry>
        </mxCell>
        <mxCell id="lhFpvezay6bXOuwAAuia-39" style="edgeStyle=orthogonalEdgeStyle;rounded=0;orthogonalLoop=1;jettySize=auto;html=1;endArrow=none;startFill=0;" parent="1" source="lhFpvezay6bXOuwAAuia-37" edge="1">
          <mxGeometry relative="1" as="geometry">
            <mxPoint x="580" y="400" as="targetPoint" />
            <Array as="points">
              <mxPoint x="580" y="405" />
            </Array>
          </mxGeometry>
        </mxCell>
        <mxCell id="lhFpvezay6bXOuwAAuia-37" value="" style="ellipse;whiteSpace=wrap;html=1;aspect=fixed;" parent="1" vertex="1">
          <mxGeometry x="455" y="400" width="10" height="10" as="geometry" />
        </mxCell>
        <mxCell id="lhFpvezay6bXOuwAAuia-43" value="" style="group" parent="1" vertex="1" connectable="0">
          <mxGeometry x="80" y="300" width="160" height="100" as="geometry" />
        </mxCell>
        <mxCell id="A-LTYlnQM60m7RUozHwg-3" style="edgeStyle=orthogonalEdgeStyle;rounded=0;orthogonalLoop=1;jettySize=auto;html=1;exitX=0;exitY=0.25;exitDx=0;exitDy=0;endArrow=none;startFill=0;" edge="1" parent="lhFpvezay6bXOuwAAuia-43" source="lhFpvezay6bXOuwAAuia-44">
          <mxGeometry relative="1" as="geometry">
            <mxPoint x="420.5428738064236" y="40" as="targetPoint" />
          </mxGeometry>
        </mxCell>
        <mxCell id="lhFpvezay6bXOuwAAuia-44" value="DMux" style="triangle;whiteSpace=wrap;html=1;direction=west;" parent="lhFpvezay6bXOuwAAuia-43" vertex="1">
          <mxGeometry x="40" width="80" height="80" as="geometry" />
        </mxCell>
        <mxCell id="lhFpvezay6bXOuwAAuia-45" value="" style="endArrow=classic;html=1;rounded=0;entryX=1;entryY=0.5;entryDx=0;entryDy=0;" parent="lhFpvezay6bXOuwAAuia-43" target="lhFpvezay6bXOuwAAuia-44" edge="1">
          <mxGeometry width="50" height="50" relative="1" as="geometry">
            <mxPoint y="40" as="sourcePoint" />
            <mxPoint x="-10" as="targetPoint" />
          </mxGeometry>
        </mxCell>
        <mxCell id="lhFpvezay6bXOuwAAuia-46" value="" style="endArrow=none;html=1;rounded=0;entryX=1;entryY=0.5;entryDx=0;entryDy=0;startFill=0;" parent="lhFpvezay6bXOuwAAuia-43" edge="1">
          <mxGeometry width="50" height="50" relative="1" as="geometry">
            <mxPoint x="120" y="20" as="sourcePoint" />
            <mxPoint x="160" y="20" as="targetPoint" />
          </mxGeometry>
        </mxCell>
        <mxCell id="lhFpvezay6bXOuwAAuia-47" value="" style="endArrow=none;html=1;rounded=0;entryX=1;entryY=0.5;entryDx=0;entryDy=0;startFill=0;" parent="lhFpvezay6bXOuwAAuia-43" edge="1">
          <mxGeometry width="50" height="50" relative="1" as="geometry">
            <mxPoint x="120" y="60" as="sourcePoint" />
            <mxPoint x="160" y="60" as="targetPoint" />
          </mxGeometry>
        </mxCell>
        <mxCell id="lhFpvezay6bXOuwAAuia-48" value="" style="endArrow=classic;html=1;rounded=0;entryX=0.5;entryY=0;entryDx=0;entryDy=0;" parent="lhFpvezay6bXOuwAAuia-43" target="lhFpvezay6bXOuwAAuia-44" edge="1">
          <mxGeometry width="50" height="50" relative="1" as="geometry">
            <mxPoint x="80" y="100" as="sourcePoint" />
            <mxPoint x="100" y="130" as="targetPoint" />
          </mxGeometry>
        </mxCell>
        <mxCell id="lhFpvezay6bXOuwAAuia-49" value="sel" style="edgeLabel;html=1;align=center;verticalAlign=middle;resizable=0;points=[];" parent="lhFpvezay6bXOuwAAuia-48" vertex="1" connectable="0">
          <mxGeometry x="0.0274" relative="1" as="geometry">
            <mxPoint as="offset" />
          </mxGeometry>
        </mxCell>
        <mxCell id="A-LTYlnQM60m7RUozHwg-1" value="" style="endArrow=none;html=1;rounded=0;edgeStyle=orthogonalEdgeStyle;startFill=0;" edge="1" parent="1">
          <mxGeometry width="50" height="50" relative="1" as="geometry">
            <mxPoint x="80" y="470" as="sourcePoint" />
            <mxPoint x="160" y="400" as="targetPoint" />
          </mxGeometry>
        </mxCell>
        <mxCell id="A-LTYlnQM60m7RUozHwg-2" value="" style="endArrow=classic;html=1;rounded=0;edgeStyle=orthogonalEdgeStyle;entryX=0;entryY=0.5;entryDx=0;entryDy=0;" edge="1" parent="1" target="lhFpvezay6bXOuwAAuia-37">
          <mxGeometry width="50" height="50" relative="1" as="geometry">
            <mxPoint x="80" y="430" as="sourcePoint" />
            <mxPoint x="350" y="430" as="targetPoint" />
          </mxGeometry>
        </mxCell>
      </root>
    </mxGraphModel>
  </diagram>
</mxfile>
